<svg xmlns="http://www.w3.org/2000/svg" xmlns:xlink="http://www.w3.org/1999/xlink" viewBox="0 0 1500 750" preserveAspectRatio="xMidYMid meet"><defs><g/><clipPath id="b0423bede2"><rect x="0" width="1336" y="0" height="365"/></clipPath></defs><g transform="matrix(1, 0, 0, 1, 66, 188)"><g clip-path="url(#b0423bede2)"><g fill="#004aad" fill-opacity="1"><g transform="translate(4.761187, 285.851987)"><g><path d="M 201.78125 -91.359375 C 198.90625 -88.960938 194.648438 -87.34375 189.015625 -86.5 C 183.378906 -85.664062 177.382812 -85.25 171.03125 -85.25 C 164.675781 -85.25 158.738281 -85.367188 153.21875 -85.609375 C 147.707031 -85.847656 143.515625 -85.96875 140.640625 -85.96875 C 128.171875 -85.726562 115.820312 -85.546875 103.59375 -85.421875 C 91.363281 -85.304688 79.015625 -85.25 66.546875 -85.25 C 62.703125 -85.25 60.238281 -84.046875 59.15625 -81.640625 C 58.082031 -79.242188 57.960938 -76.546875 58.796875 -73.546875 C 59.640625 -70.554688 60.78125 -67.984375 62.21875 -65.828125 C 67.257812 -59.347656 73.554688 -54.128906 81.109375 -50.171875 C 88.660156 -46.210938 96.515625 -43.753906 104.671875 -42.796875 C 113.785156 -41.835938 121.398438 -43.097656 127.515625 -46.578125 C 133.628906 -50.054688 140.519531 -53.710938 148.1875 -57.546875 C 151.789062 -59.460938 154.25 -60.660156 155.5625 -61.140625 C 156.882812 -61.617188 159.101562 -60.539062 162.21875 -57.90625 C 165.570312 -55.269531 168.75 -51.671875 171.75 -47.109375 C 174.75 -42.554688 177.6875 -38.601562 180.5625 -35.25 C 183.675781 -31.175781 183.554688 -27.335938 180.203125 -23.734375 C 176.847656 -20.140625 171.691406 -16.84375 164.734375 -13.84375 C 157.785156 -10.851562 150.234375 -8.273438 142.078125 -6.109375 C 133.921875 -3.953125 126.546875 -2.273438 119.953125 -1.078125 C 113.359375 0.117188 108.863281 0.71875 106.46875 0.71875 C 90.40625 0.71875 75.597656 -2.457031 62.046875 -8.8125 C 48.492188 -15.164062 36.921875 -23.796875 27.328125 -34.703125 C 17.742188 -45.617188 10.550781 -57.910156 5.75 -71.578125 C 0.957031 -85.242188 -0.898438 -99.570312 0.171875 -114.5625 C 1.253906 -129.550781 5.875 -144.117188 14.03125 -158.265625 C 20.257812 -169.296875 28.585938 -178.644531 39.015625 -186.3125 C 49.453125 -193.988281 60.960938 -199.6875 73.546875 -203.40625 C 86.140625 -207.125 99.03125 -208.800781 112.21875 -208.4375 C 125.40625 -208.082031 137.929688 -205.445312 149.796875 -200.53125 C 161.671875 -195.613281 172.046875 -188.238281 180.921875 -178.40625 C 184.992188 -173.851562 188.890625 -168.15625 192.609375 -161.3125 C 196.328125 -154.476562 199.503906 -147.101562 202.140625 -139.1875 C 204.773438 -131.28125 206.394531 -123.550781 207 -116 C 207.601562 -108.445312 206.820312 -101.550781 204.65625 -95.3125 C 204.175781 -93.875 203.21875 -92.554688 201.78125 -91.359375 Z M 147.46875 -128.765625 C 148.1875 -130.441406 148.425781 -132.238281 148.1875 -134.15625 C 147.945312 -137.039062 146.628906 -139.800781 144.234375 -142.4375 C 137.753906 -151.550781 129.359375 -158.265625 119.046875 -162.578125 C 108.742188 -166.890625 98.195312 -166.648438 87.40625 -161.859375 C 82.601562 -159.703125 78.101562 -156.941406 73.90625 -153.578125 C 69.71875 -150.222656 65.820312 -146.628906 62.21875 -142.796875 C 61.257812 -141.835938 60.300781 -140.757812 59.34375 -139.5625 C 58.382812 -138.363281 57.664062 -137.046875 57.1875 -135.609375 C 56.226562 -132.722656 56.707031 -130.082031 58.625 -127.6875 C 60.539062 -125.289062 62.941406 -124.09375 65.828125 -124.09375 L 139.203125 -124.09375 C 143.273438 -124.09375 146.03125 -125.648438 147.46875 -128.765625 Z M 147.46875 -128.765625 "/></g></g></g><g fill="#004aad" fill-opacity="1"><g transform="translate(212.629582, 285.851987)"><g><path d="M 109.34375 -43.515625 C 108.382812 -45.441406 107.242188 -47.003906 105.921875 -48.203125 C 104.609375 -49.398438 102.875 -50 100.71875 -50 C 98.3125 -50 96.148438 -49.039062 94.234375 -47.125 C 88.722656 -41.601562 83.566406 -36.085938 78.765625 -30.578125 C 72.773438 -23.859375 66.0625 -17.738281 58.625 -12.21875 C 51.195312 -6.707031 43.164062 -2.875 34.53125 -0.71875 C 25.894531 1.433594 16.660156 0.835938 6.828125 -2.515625 C 1.796875 -4.429688 -0.476562 -6.828125 0 -9.703125 C 0.476562 -12.585938 1.914062 -16.425781 4.3125 -21.21875 C 8.875 -29.851562 14.570312 -37.644531 21.40625 -44.59375 C 28.238281 -51.550781 34.410156 -58.988281 39.921875 -66.90625 C 44.242188 -72.894531 48.203125 -79.003906 51.796875 -85.234375 C 55.390625 -91.472656 57.546875 -97.945312 58.265625 -104.65625 C 58.984375 -111.375 57.066406 -118.210938 52.515625 -125.171875 C 48.441406 -131.648438 44.003906 -137.765625 39.203125 -143.515625 C 34.410156 -149.265625 29.613281 -155.140625 24.8125 -161.140625 C 22.894531 -163.773438 19.957031 -167.488281 16 -172.28125 C 12.050781 -177.082031 8.515625 -182.0625 5.390625 -187.21875 C 2.273438 -192.375 0.957031 -196.628906 1.4375 -199.984375 C 2.15625 -203.097656 4.734375 -205.253906 9.171875 -206.453125 C 13.609375 -207.660156 18.523438 -208.320312 23.921875 -208.4375 C 29.316406 -208.5625 33.453125 -208.503906 36.328125 -208.265625 C 42.566406 -208.023438 48.5625 -206.765625 54.3125 -204.484375 C 60.070312 -202.203125 64.75 -198.304688 68.34375 -192.796875 C 69.300781 -191.835938 70.140625 -190.875 70.859375 -189.90625 C 71.578125 -188.945312 72.175781 -187.988281 72.65625 -187.03125 C 74.570312 -184.632812 76.488281 -182.054688 78.40625 -179.296875 C 80.332031 -176.546875 82.132812 -173.734375 83.8125 -170.859375 C 85.488281 -167.972656 87.164062 -165.332031 88.84375 -162.9375 C 90.519531 -160.300781 92.675781 -158.984375 95.3125 -158.984375 C 95.550781 -158.984375 95.726562 -158.984375 95.84375 -158.984375 C 95.96875 -158.984375 96.148438 -158.984375 96.390625 -158.984375 C 99.035156 -158.984375 101.195312 -159.820312 102.875 -161.5 C 105.507812 -164.132812 107.90625 -166.769531 110.0625 -169.40625 C 112.21875 -172.050781 114.5 -174.691406 116.90625 -177.328125 C 121.695312 -182.835938 126.3125 -188.050781 130.75 -192.96875 C 135.1875 -197.882812 140.039062 -201.421875 145.3125 -203.578125 C 150.101562 -205.492188 155.132812 -206.691406 160.40625 -207.171875 C 165.6875 -207.660156 170.847656 -207.785156 175.890625 -207.546875 C 179.242188 -207.546875 182.78125 -207.242188 186.5 -206.640625 C 190.21875 -206.035156 192.914062 -204.710938 194.59375 -202.671875 C 196.269531 -200.640625 195.550781 -197.347656 192.4375 -192.796875 C 185.476562 -182.242188 177.742188 -172.171875 169.234375 -162.578125 C 160.722656 -152.984375 153.347656 -142.671875 147.109375 -131.640625 C 140.398438 -119.890625 138.179688 -108.679688 140.453125 -98.015625 C 142.734375 -87.347656 148.3125 -76.976562 157.1875 -66.90625 C 161.257812 -62.34375 166.289062 -56.820312 172.28125 -50.34375 C 178.28125 -43.875 183.675781 -37.101562 188.46875 -30.03125 C 193.269531 -22.957031 195.789062 -16.1875 196.03125 -9.71875 C 196.269531 -6.113281 194.707031 -3.832031 191.34375 -2.875 C 187.988281 -1.914062 184.09375 -1.554688 179.65625 -1.796875 C 175.226562 -2.035156 171.453125 -2.15625 168.328125 -2.15625 C 156.335938 -2.15625 145.304688 -4.789062 135.234375 -10.0625 C 125.171875 -15.34375 117.738281 -23.859375 112.9375 -35.609375 C 112.457031 -36.804688 111.914062 -38.125 111.3125 -39.5625 C 110.71875 -41 110.0625 -42.316406 109.34375 -43.515625 Z M 109.34375 -43.515625 "/></g></g></g><g fill="#004aad" fill-opacity="1"><g transform="translate(409.708699, 285.851987)"><g><path d="M 178.40625 -23.015625 C 164.257812 -11.023438 147.472656 -4.007812 128.046875 -1.96875 C 108.628906 0.0585938 89.328125 -3.597656 70.140625 -12.953125 C 69.179688 -13.671875 67.863281 -14.03125 66.1875 -14.03125 C 64.507812 -14.03125 62.828125 -13.550781 61.140625 -12.59375 C 58.265625 -10.914062 56.828125 -8.273438 56.828125 -4.671875 C 56.828125 -1.078125 56.828125 2.515625 56.828125 6.109375 C 56.828125 9.710938 56.828125 13.3125 56.828125 16.90625 C 56.828125 19.300781 57.066406 23.195312 57.546875 28.59375 C 58.023438 33.988281 58.441406 39.800781 58.796875 46.03125 C 59.160156 52.269531 59.101562 57.847656 58.625 62.765625 C 58.144531 67.679688 56.828125 70.859375 54.671875 72.296875 C 53.710938 72.773438 52.632812 73.132812 51.4375 73.375 C 50.238281 73.613281 49.039062 73.851562 47.84375 74.09375 C 41.601562 74.8125 35.1875 75.585938 28.59375 76.421875 C 22 77.265625 16.179688 76.664062 11.140625 74.625 C 6.109375 72.59375 2.992188 67.617188 1.796875 59.703125 C 0.117188 45.554688 -0.238281 31.46875 0.71875 17.4375 C 1.675781 3.414062 2.15625 -10.546875 2.15625 -24.453125 C 2.15625 -51.554688 2.210938 -79.070312 2.328125 -107 C 2.453125 -134.9375 2.273438 -162.695312 1.796875 -190.28125 C 1.796875 -195.3125 2.09375 -198.90625 2.6875 -201.0625 C 3.289062 -203.21875 3.953125 -204.65625 4.671875 -205.375 C 6.828125 -207.539062 10.363281 -208.203125 15.28125 -207.359375 C 20.195312 -206.515625 25.234375 -205.3125 30.390625 -203.75 C 35.546875 -202.195312 39.320312 -201.179688 41.71875 -200.703125 C 51.550781 -199.023438 60.785156 -198.90625 69.421875 -200.34375 C 78.054688 -201.78125 86.75 -203.578125 95.5 -205.734375 C 104.25 -207.898438 113.421875 -208.984375 123.015625 -208.984375 C 136.679688 -208.984375 149.03125 -206.164062 160.0625 -200.53125 C 171.09375 -194.894531 180.441406 -187.21875 188.109375 -177.5 C 195.785156 -167.789062 201.84375 -156.941406 206.28125 -144.953125 C 210.71875 -132.960938 213.175781 -120.550781 213.65625 -107.71875 C 214.132812 -94.894531 212.578125 -82.488281 208.984375 -70.5 C 205.859375 -60.425781 201.71875 -51.429688 196.5625 -43.515625 C 191.414062 -35.609375 185.363281 -28.773438 178.40625 -23.015625 Z M 106.46875 -43.515625 C 106.945312 -43.515625 107.304688 -43.515625 107.546875 -43.515625 C 107.785156 -43.515625 108.023438 -43.515625 108.265625 -43.515625 C 118.097656 -43.992188 126.847656 -46.988281 134.515625 -52.5 C 142.191406 -58.019531 148.304688 -65.335938 152.859375 -74.453125 C 157.421875 -83.566406 159.582031 -93.640625 159.34375 -104.671875 C 159.34375 -116.179688 157.003906 -126.488281 152.328125 -135.59375 C 147.648438 -144.707031 141.414062 -151.960938 133.625 -157.359375 C 125.832031 -162.753906 117.019531 -165.453125 107.1875 -165.453125 L 105.75 -165.453125 C 96.15625 -165.210938 87.519531 -162.273438 79.84375 -156.640625 C 72.175781 -151.003906 66.179688 -143.453125 61.859375 -133.984375 C 57.546875 -124.515625 55.507812 -113.90625 55.75 -102.15625 C 55.988281 -91.125 58.328125 -81.171875 62.765625 -72.296875 C 67.203125 -63.421875 73.253906 -56.40625 80.921875 -51.25 C 88.597656 -46.09375 97.113281 -43.515625 106.46875 -43.515625 Z M 106.46875 -43.515625 "/></g></g></g><g fill="#004aad" fill-opacity="1"><g transform="translate(624.050713, 285.851987)"><g><path d="M 53.59375 -5.03125 C 51.914062 -2.875 49.515625 -1.675781 46.390625 -1.4375 C 43.273438 -1.195312 40.039062 -0.835938 36.6875 -0.359375 C 33.570312 -0.117188 29.914062 0.117188 25.71875 0.359375 C 21.519531 0.597656 17.5625 0.179688 13.84375 -0.890625 C 10.125 -1.972656 7.304688 -4.191406 5.390625 -7.546875 C 2.515625 -12.828125 0.835938 -18.644531 0.359375 -25 C -0.117188 -31.351562 0 -37.828125 0.71875 -44.421875 C 1.4375 -51.015625 1.796875 -57.191406 1.796875 -62.953125 C 2.035156 -74.210938 2.210938 -85.414062 2.328125 -96.5625 C 2.453125 -107.71875 2.632812 -118.929688 2.875 -130.203125 C 3.113281 -152.503906 3.171875 -174.863281 3.046875 -197.28125 C 2.929688 -219.707031 2.632812 -242.070312 2.15625 -264.375 C 2.15625 -270.601562 3.472656 -275.097656 6.109375 -277.859375 C 8.753906 -280.617188 12.234375 -282.238281 16.546875 -282.71875 C 20.859375 -283.195312 25.53125 -283.078125 30.5625 -282.359375 C 35.601562 -281.640625 40.40625 -281.039062 44.96875 -280.5625 C 50 -280.082031 53.289062 -277.382812 54.84375 -272.46875 C 56.40625 -267.550781 57.125 -262.273438 57 -256.640625 C 56.882812 -251.003906 56.707031 -246.507812 56.46875 -243.15625 C 55.988281 -232.125 55.6875 -220.972656 55.5625 -209.703125 C 55.445312 -198.429688 55.390625 -187.160156 55.390625 -175.890625 C 55.390625 -148.554688 55.390625 -121.21875 55.390625 -93.875 C 55.390625 -66.539062 55.390625 -39.207031 55.390625 -11.875 C 55.390625 -8.988281 54.789062 -6.707031 53.59375 -5.03125 Z M 53.59375 -5.03125 "/></g></g></g><g fill="#004aad" fill-opacity="1"><g transform="translate(681.948136, 285.851987)"><g><path d="M 0.359375 -104.3125 C 0.117188 -117.738281 2.753906 -131.101562 8.265625 -144.40625 C 13.785156 -157.71875 21.460938 -169.410156 31.296875 -179.484375 C 40.648438 -189.078125 51.320312 -196.390625 63.3125 -201.421875 C 75.300781 -206.460938 87.648438 -208.984375 100.359375 -208.984375 C 101.554688 -208.984375 102.8125 -208.984375 104.125 -208.984375 C 105.445312 -208.984375 106.707031 -208.984375 107.90625 -208.984375 C 107.90625 -208.984375 107.960938 -208.984375 108.078125 -208.984375 C 108.203125 -208.984375 108.265625 -208.984375 108.265625 -208.984375 C 129.128906 -208.984375 147.53125 -204.664062 163.46875 -196.03125 C 179.414062 -187.394531 191.945312 -175.40625 201.0625 -160.0625 C 210.175781 -144.71875 214.734375 -126.972656 214.734375 -106.828125 C 214.734375 -75.410156 204.898438 -49.875 185.234375 -30.21875 C 175.648438 -20.625 164.203125 -13.25 150.890625 -8.09375 C 137.578125 -2.9375 123.128906 -0.359375 107.546875 -0.359375 C 92.679688 -0.359375 78.832031 -3.054688 66 -8.453125 C 53.175781 -13.847656 41.90625 -21.28125 32.1875 -30.75 C 22.476562 -40.226562 14.804688 -51.257812 9.171875 -63.84375 C 3.535156 -76.4375 0.597656 -89.925781 0.359375 -104.3125 Z M 106.46875 -166.171875 C 98.070312 -166.171875 89.914062 -163.472656 82 -158.078125 C 74.09375 -152.679688 67.5625 -145.726562 62.40625 -137.21875 C 57.25 -128.707031 54.550781 -119.773438 54.3125 -110.421875 C 54.070312 -100.109375 55.75 -90.15625 59.34375 -80.5625 C 62.945312 -70.976562 68.460938 -62.945312 75.890625 -56.46875 C 83.328125 -50 92.5625 -46.164062 103.59375 -44.96875 C 115.820312 -43.757812 126.128906 -45.671875 134.515625 -50.703125 C 142.910156 -55.742188 149.382812 -62.640625 153.9375 -71.390625 C 158.5 -80.148438 161.019531 -89.742188 161.5 -100.171875 C 161.976562 -110.597656 160.414062 -120.609375 156.8125 -130.203125 C 153.21875 -139.796875 147.460938 -147.890625 139.546875 -154.484375 C 131.640625 -161.078125 121.570312 -164.972656 109.34375 -166.171875 C 108.863281 -166.171875 108.382812 -166.171875 107.90625 -166.171875 C 107.425781 -166.171875 106.945312 -166.171875 106.46875 -166.171875 Z M 106.46875 -166.171875 "/></g></g></g><g fill="#004aad" fill-opacity="1"><g transform="translate(897.369064, 285.851987)"><g><path d="M 111.859375 -159.34375 C 110.660156 -158.625 109.28125 -158.082031 107.71875 -157.71875 C 106.164062 -157.363281 104.671875 -156.945312 103.234375 -156.46875 C 100.597656 -156.226562 97.835938 -156.046875 94.953125 -155.921875 C 92.078125 -155.804688 89.320312 -155.390625 86.6875 -154.671875 C 80.925781 -152.984375 76.007812 -149.921875 71.9375 -145.484375 C 67.863281 -141.054688 64.742188 -136.082031 62.578125 -130.5625 C 58.503906 -119.53125 55.925781 -107.539062 54.84375 -94.59375 C 53.769531 -81.644531 53.410156 -68.578125 53.765625 -55.390625 C 54.128906 -42.203125 54.191406 -29.734375 53.953125 -17.984375 L 53.953125 -12.59375 C 53.953125 -8.03125 52.210938 -4.847656 48.734375 -3.046875 C 45.253906 -1.253906 41.054688 -0.296875 36.140625 -0.171875 C 31.234375 -0.0546875 26.441406 -0.238281 21.765625 -0.71875 C 17.085938 -1.195312 13.429688 -1.554688 10.796875 -1.796875 C 8.390625 -1.796875 6.585938 -2.273438 5.390625 -3.234375 C 3.234375 -4.671875 1.851562 -7.425781 1.25 -11.5 C 0.65625 -15.582031 0.359375 -20.140625 0.359375 -25.171875 C 0.359375 -30.210938 0.535156 -35.007812 0.890625 -39.5625 C 1.253906 -44.125 1.4375 -47.484375 1.4375 -49.640625 C 1.914062 -58.023438 2.394531 -66.414062 2.875 -74.8125 C 3.351562 -83.207031 3.59375 -91.601562 3.59375 -100 C 3.59375 -116.300781 3.59375 -132.664062 3.59375 -149.09375 C 3.59375 -165.519531 3.59375 -182.003906 3.59375 -198.546875 C 3.59375 -202.617188 4.550781 -205.195312 6.46875 -206.28125 C 8.394531 -207.363281 10.796875 -207.785156 13.671875 -207.546875 C 16.546875 -207.304688 19.421875 -207.304688 22.296875 -207.546875 C 27.335938 -208.265625 32.253906 -208.625 37.046875 -208.625 C 46.878906 -208.625 54.429688 -205.503906 59.703125 -199.265625 C 61.617188 -197.109375 64.019531 -196.03125 66.90625 -196.03125 C 67.863281 -196.03125 68.703125 -196.148438 69.421875 -196.390625 C 72.535156 -196.628906 76.25 -197.707031 80.5625 -199.625 C 84.882812 -201.539062 89.382812 -203.398438 94.0625 -205.203125 C 98.738281 -207.003906 103.113281 -208.203125 107.1875 -208.796875 C 111.257812 -209.398438 114.613281 -208.679688 117.25 -206.640625 C 119.894531 -204.597656 121.21875 -200.460938 121.21875 -194.234375 C 121.21875 -191.117188 121.15625 -187.941406 121.03125 -184.703125 C 120.914062 -181.460938 120.738281 -178.285156 120.5 -175.171875 C 120.257812 -173.492188 120.019531 -171.691406 119.78125 -169.765625 C 119.539062 -167.847656 118.820312 -166.171875 117.625 -164.734375 C 116.175781 -162.097656 114.253906 -160.300781 111.859375 -159.34375 Z M 111.859375 -159.34375 "/></g></g></g><g fill="#004aad" fill-opacity="1"><g transform="translate(1019.282899, 285.851987)"><g><path d="M 13.671875 -226.609375 C 8.390625 -229.960938 4.550781 -234.695312 2.15625 -240.8125 C -0.238281 -246.925781 -0.355469 -253.582031 1.796875 -260.78125 C 5.867188 -274.925781 15.460938 -282.238281 30.578125 -282.71875 L 31.296875 -282.71875 C 38.722656 -282.71875 44.953125 -280.738281 49.984375 -276.78125 C 55.023438 -272.820312 58.382812 -267.363281 60.0625 -260.40625 C 62.226562 -251.78125 61.390625 -243.867188 57.546875 -236.671875 C 53.710938 -229.484375 47.238281 -224.804688 38.125 -222.640625 C 33.570312 -221.679688 29.195312 -221.5625 25 -222.28125 C 20.800781 -223 17.023438 -224.441406 13.671875 -226.609375 Z M 8.625 -190.640625 C 11.988281 -192.796875 16.785156 -193.753906 23.015625 -193.515625 C 26.617188 -193.515625 30.578125 -193.632812 34.890625 -193.875 C 39.203125 -194.113281 43.21875 -193.691406 46.9375 -192.609375 C 50.65625 -191.535156 53.113281 -189.078125 54.3125 -185.234375 C 56.46875 -179.242188 57.1875 -171.988281 56.46875 -163.46875 C 55.75 -154.957031 55.390625 -147.585938 55.390625 -141.359375 C 55.628906 -126.734375 55.75 -112.222656 55.75 -97.828125 C 55.75 -83.441406 55.867188 -68.9375 56.109375 -54.3125 C 56.109375 -51.914062 56.40625 -47.898438 57 -42.265625 C 57.601562 -36.628906 57.960938 -30.570312 58.078125 -24.09375 C 58.203125 -17.625 57.546875 -12.109375 56.109375 -7.546875 C 54.671875 -2.992188 51.796875 -0.597656 47.484375 -0.359375 C 41.960938 -0.117188 36.203125 0.0546875 30.203125 0.171875 C 24.210938 0.296875 18.460938 0 12.953125 -0.71875 C 9.109375 -1.195312 6.46875 -3.296875 5.03125 -7.015625 C 3.59375 -10.734375 2.8125 -15.226562 2.6875 -20.5 C 2.570312 -25.78125 2.753906 -30.816406 3.234375 -35.609375 C 3.710938 -40.398438 3.953125 -44.117188 3.953125 -46.765625 C 3.710938 -56.585938 3.53125 -66.472656 3.40625 -76.421875 C 3.289062 -86.378906 3.234375 -96.273438 3.234375 -106.109375 C 2.992188 -114.503906 2.875 -122.894531 2.875 -131.28125 C 2.875 -139.675781 2.753906 -147.953125 2.515625 -156.109375 C 2.515625 -163.054688 2.394531 -169.765625 2.15625 -176.234375 C 1.914062 -182.710938 4.070312 -187.515625 8.625 -190.640625 Z M 8.625 -190.640625 "/></g></g></g><g fill="#004aad" fill-opacity="1"><g transform="translate(1081.496047, 285.851987)"><g><path d="M 175.890625 -9 C 173.972656 -6.59375 170.972656 -5.269531 166.890625 -5.03125 C 163.054688 -5.03125 159.335938 -5.8125 155.734375 -7.375 C 152.140625 -8.9375 148.601562 -10.492188 145.125 -12.046875 C 141.65625 -13.609375 137.878906 -14.390625 133.796875 -14.390625 C 131.160156 -14.390625 128.523438 -14.207031 125.890625 -13.84375 C 123.253906 -13.488281 120.859375 -13.070312 118.703125 -12.59375 L 116.90625 -12.234375 C 109.945312 -11.035156 103.171875 -9.472656 96.578125 -7.546875 C 89.984375 -5.628906 83.804688 -3.710938 78.046875 -1.796875 C 75.410156 -1.078125 72.710938 -0.476562 69.953125 0 C 67.203125 0.476562 64.382812 0.71875 61.5 0.71875 C 44 0.71875 29.253906 -6.234375 17.265625 -20.140625 C 3.597656 -35.722656 -1.792969 -54.90625 1.078125 -77.6875 C 2.273438 -86.800781 5.453125 -94.953125 10.609375 -102.140625 C 15.765625 -109.335938 22.300781 -114.859375 30.21875 -118.703125 C 34.289062 -120.617188 38.601562 -121.992188 43.15625 -122.828125 C 47.71875 -123.671875 52.394531 -124.453125 57.1875 -125.171875 C 58.382812 -125.171875 59.460938 -125.226562 60.421875 -125.34375 C 61.378906 -125.46875 62.34375 -125.648438 63.3125 -125.890625 L 110.421875 -132.359375 C 116.660156 -133.316406 120.554688 -135.175781 122.109375 -137.9375 C 123.671875 -140.695312 124.570312 -142.914062 124.8125 -144.59375 C 125.289062 -148.664062 124.03125 -152.378906 121.03125 -155.734375 C 118.03125 -159.097656 114.492188 -161.378906 110.421875 -162.578125 C 102.992188 -165.453125 95.320312 -166.890625 87.40625 -166.890625 L 86.328125 -166.890625 C 78.890625 -166.648438 71.8125 -165.570312 65.09375 -163.65625 C 58.382812 -161.738281 51.914062 -159.460938 45.6875 -156.828125 C 43.757812 -155.867188 41.476562 -155.390625 38.84375 -155.390625 C 33.570312 -155.390625 28.359375 -157.125 23.203125 -160.59375 C 18.046875 -164.070312 14.390625 -168.210938 12.234375 -173.015625 C 11.273438 -174.929688 10.851562 -176.546875 10.96875 -177.859375 C 11.09375 -179.179688 11.273438 -180.203125 11.515625 -180.921875 C 12.953125 -184.035156 15.765625 -186.851562 19.953125 -189.375 C 24.148438 -191.894531 28.585938 -194.050781 33.265625 -195.84375 C 37.941406 -197.644531 41.84375 -199.023438 44.96875 -199.984375 C 62.226562 -205.503906 79.609375 -208.265625 97.109375 -208.265625 C 98.796875 -208.265625 100.476562 -208.265625 102.15625 -208.265625 C 103.832031 -208.265625 105.507812 -208.144531 107.1875 -207.90625 C 115.582031 -207.425781 124.875 -205.804688 135.0625 -203.046875 C 145.25 -200.285156 153.941406 -195.066406 161.140625 -187.390625 C 169.535156 -178.285156 174.570312 -169.175781 176.25 -160.0625 C 178.164062 -149.75 178.820312 -139.015625 178.21875 -127.859375 C 177.625 -116.710938 177.445312 -105.863281 177.6875 -95.3125 C 177.6875 -84.519531 177.6875 -73.671875 177.6875 -62.765625 C 177.6875 -51.859375 177.804688 -41.128906 178.046875 -30.578125 C 178.046875 -26.972656 178.222656 -23.132812 178.578125 -19.0625 C 178.941406 -14.988281 178.046875 -11.632812 175.890625 -9 Z M 123.734375 -70.859375 C 125.648438 -74.691406 126.25 -77.925781 125.53125 -80.5625 C 124.8125 -83.207031 124.09375 -85.007812 123.375 -85.96875 C 122.414062 -87.40625 120.914062 -88.78125 118.875 -90.09375 C 116.832031 -91.414062 114.015625 -92.195312 110.421875 -92.4375 L 107.546875 -92.796875 C 105.390625 -93.035156 103.171875 -93.15625 100.890625 -93.15625 C 98.609375 -93.15625 96.148438 -93.15625 93.515625 -93.15625 C 89.441406 -93.15625 84.523438 -92.734375 78.765625 -91.890625 C 73.015625 -91.054688 67.5 -88.84375 62.21875 -85.25 C 58.625 -82.375 56.347656 -79.375 55.390625 -76.25 C 54.429688 -73.613281 54.3125 -70.257812 55.03125 -66.1875 C 56.707031 -58.75 59.941406 -52.988281 64.734375 -48.90625 C 69.535156 -44.832031 75.296875 -42.796875 82.015625 -42.796875 C 90.398438 -42.796875 98.671875 -45.550781 106.828125 -51.0625 C 114.984375 -56.582031 120.617188 -63.179688 123.734375 -70.859375 Z M 123.734375 -70.859375 "/></g></g></g><g fill="#004aad" fill-opacity="1"><g transform="translate(1260.95267, 285.851987)"><g><path d="M 10.078125 -55.03125 C 14.148438 -59.101562 19.125 -61.976562 25 -63.65625 C 30.875 -65.34375 36.6875 -65.226562 42.4375 -63.3125 C 50.59375 -60.90625 56.890625 -56.046875 61.328125 -48.734375 C 65.765625 -41.421875 67.023438 -33.566406 65.109375 -25.171875 C 64.148438 -19.898438 61.75 -15.046875 57.90625 -10.609375 C 54.070312 -6.171875 49.515625 -2.992188 44.234375 -1.078125 C 36.566406 1.554688 29.132812 1.316406 21.9375 -1.796875 C 14.75 -4.910156 9.054688 -9.820312 4.859375 -16.53125 C 0.660156 -23.25 -0.714844 -30.566406 0.71875 -38.484375 C 2.15625 -45.203125 5.273438 -50.71875 10.078125 -55.03125 Z M 10.078125 -55.03125 "/></g></g></g></g></g></svg>
